<svg width="44" height="30" viewBox="0 0 44 30" fill="none" xmlns="http://www.w3.org/2000/svg">
<path d="M0.468506 29.124V0.921485H9.14619C11.6255 0.921485 13.8401 1.48321 15.79 2.60666C17.7529 3.7172 19.2831 5.30552 20.3807 7.37164C21.4783 9.42484 22.0271 11.7621 22.0271 14.3835V15.6813C22.0271 18.3027 21.4848 20.6335 20.4001 22.6738C19.3283 24.7141 17.811 26.296 15.8482 27.4194C13.8853 28.5429 11.6707 29.1111 9.2043 29.124H0.468506ZM6.27946 5.62836V24.4558H9.08808C11.3608 24.4558 13.0976 23.7133 14.2986 22.2283C15.4995 20.7433 16.1129 18.6191 16.1387 15.8556V14.3642C16.1387 11.4974 15.5447 9.32799 14.3567 7.85589C13.1687 6.37087 11.4318 5.62836 9.14619 5.62836H6.27946Z" fill="white"/>
<path d="M43.485 15.6619C43.485 18.4383 42.9943 20.8724 42.0129 22.9644C41.0315 25.0563 39.624 26.6705 37.7903 27.8068C35.9695 28.9432 33.8776 29.5114 31.5145 29.5114C29.1772 29.5114 27.0917 28.9496 25.258 27.8262C23.4243 26.7027 22.0039 25.1015 20.9967 23.0225C19.9894 20.9305 19.4794 18.5287 19.4664 15.8169V14.4223C19.4664 11.6459 19.9636 9.20532 20.9579 7.10046C21.9652 4.98269 23.3791 3.36208 25.1999 2.23863C27.0336 1.10227 29.1255 0.534088 31.4757 0.534088C33.8259 0.534088 35.9114 1.10227 37.7322 2.23863C39.5659 3.36208 40.9799 4.98269 41.9742 7.10046C42.9814 9.20532 43.485 11.6395 43.485 14.4029V15.6619ZM37.5966 14.3835C37.5966 11.4264 37.0672 9.17949 36.0083 7.64282C34.9494 6.10614 33.4385 5.33781 31.4757 5.33781C29.5258 5.33781 28.0215 6.09969 26.9626 7.62345C25.9037 9.1343 25.3678 11.3554 25.3549 14.2867V15.6619C25.3549 18.5416 25.8843 20.7756 26.9432 22.3639C28.0021 23.9522 29.5258 24.7464 31.5145 24.7464C33.4644 24.7464 34.9623 23.9845 36.0083 22.4607C37.0543 20.9241 37.5837 18.6901 37.5966 15.7588V14.3835Z" fill="white"/>
</svg>
